<svg width="12" height="13" viewBox="0 0 12 13" fill="none" xmlns="http://www.w3.org/2000/svg">
<path d="M8.64928 8.56229C9.03596 8.35669 9.47857 8.23966 9.94994 8.23966H9.95154C9.99947 8.23966 10.0218 8.18272 9.98669 8.1511C9.49649 7.71567 8.93652 7.36399 8.32971 7.11046C8.32331 7.1073 8.31692 7.10572 8.31053 7.10255C9.3028 6.38929 9.94834 5.23005 9.94834 3.92214C9.94834 1.75547 8.17791 0 5.99363 0C3.80935 0 2.04051 1.75547 2.04051 3.92214C2.04051 5.23005 2.68605 6.38929 3.67992 7.10255C3.67353 7.10572 3.66714 7.1073 3.66075 7.11046C2.9465 7.40937 2.30576 7.83796 1.75449 8.38516C1.20642 8.92664 0.770072 9.56855 0.469812 10.2751C0.174388 10.9669 0.0149504 11.7082 3.99562e-05 12.4591C-0.000386522 12.476 0.00260472 12.4928 0.00883752 12.5085C0.0150703 12.5242 0.0244185 12.5386 0.0363313 12.5506C0.0482441 12.5627 0.0624804 12.5723 0.0782013 12.5789C0.0939223 12.5854 0.11081 12.5888 0.127869 12.5888H1.08499C1.1537 12.5888 1.21122 12.5335 1.21282 12.4655C1.24478 11.2445 1.73852 10.1011 2.61255 9.23443C3.51534 8.33771 4.71694 7.84428 5.99523 7.84428C6.90122 7.84428 7.77045 8.09258 8.51985 8.55754C8.5391 8.56952 8.5612 8.57626 8.58392 8.57709C8.60664 8.57792 8.62918 8.57282 8.64928 8.56229ZM5.99523 6.64234C5.2634 6.64234 4.57473 6.35925 4.05542 5.84526C3.79991 5.59302 3.59736 5.29324 3.45942 4.96318C3.32148 4.63313 3.25088 4.27932 3.25169 3.92214C3.25169 3.19623 3.53771 2.51302 4.05542 1.99903C4.57313 1.48504 5.26181 1.20195 5.99523 1.20195C6.72865 1.20195 7.41573 1.48504 7.93503 1.99903C8.19054 2.25126 8.3931 2.55104 8.53104 2.8811C8.66898 3.21116 8.73957 3.56496 8.73876 3.92214C8.73876 4.64805 8.45274 5.33126 7.93503 5.84526C7.41573 6.35925 6.72705 6.64234 5.99523 6.64234ZM11.8722 10.4063H10.53V9.07786C10.53 9.00827 10.4724 8.95134 10.4021 8.95134H9.50733C9.43703 8.95134 9.3795 9.00827 9.3795 9.07786V10.4063H8.0373C7.96699 10.4063 7.90947 10.4633 7.90947 10.5328V11.4185C7.90947 11.4881 7.96699 11.545 8.0373 11.545H9.3795V12.8735C9.3795 12.9431 9.43703 13 9.50733 13H10.4021C10.4724 13 10.53 12.9431 10.53 12.8735V11.545H11.8722C11.9425 11.545 12 11.4881 12 11.4185V10.5328C12 10.4633 11.9425 10.4063 11.8722 10.4063Z" fill="black"/>
</svg>
