<svg width="22" height="19" viewBox="0 0 22 19" fill="none" xmlns="http://www.w3.org/2000/svg">
<path d="M20.8998 17.25L11.1498 0.375C11.0045 0.124219 10.7537 0 10.5006 0C10.2475 0 9.99434 0.124219 9.85137 0.375L0.101375 17.25C-0.186906 17.7516 0.174031 18.375 0.750594 18.375H20.2506C20.8272 18.375 21.1881 17.7516 20.8998 17.25ZM9.75059 6.9375C9.75059 6.83437 9.83497 6.75 9.93809 6.75H11.0631C11.1662 6.75 11.2506 6.83437 11.2506 6.9375V11.25C11.2506 11.3531 11.1662 11.4375 11.0631 11.4375H9.93809C9.83497 11.4375 9.75059 11.3531 9.75059 11.25V6.9375ZM10.5006 15.1875C10.2062 15.1815 9.92589 15.0603 9.71982 14.85C9.51374 14.6397 9.39832 14.357 9.39832 14.0625C9.39832 13.768 9.51374 13.4853 9.71982 13.275C9.92589 13.0647 10.2062 12.9435 10.5006 12.9375C10.795 12.9435 11.0753 13.0647 11.2814 13.275C11.4874 13.4853 11.6029 13.768 11.6029 14.0625C11.6029 14.357 11.4874 14.6397 11.2814 14.85C11.0753 15.0603 10.795 15.1815 10.5006 15.1875Z" fill="#EB5757"/>
</svg>
