<svg width="17" height="17" viewBox="0 0 17 17" fill="none" xmlns="http://www.w3.org/2000/svg">
<path d="M8.5 1.0625C4.39277 1.0625 1.0625 4.39277 1.0625 8.5C1.0625 12.6072 4.39277 15.9375 8.5 15.9375C12.6072 15.9375 15.9375 12.6072 15.9375 8.5C15.9375 4.39277 12.6072 1.0625 8.5 1.0625ZM8.5 14.6758C5.09004 14.6758 2.32422 11.91 2.32422 8.5C2.32422 5.09004 5.09004 2.32422 8.5 2.32422C11.91 2.32422 14.6758 5.09004 14.6758 8.5C14.6758 11.91 11.91 14.6758 8.5 14.6758Z" fill="#EB5757"/>
<path d="M11.4003 10.6017L9.03291 8.89012V4.78125C9.03291 4.7082 8.97314 4.64844 8.90009 4.64844H8.10156C8.02852 4.64844 7.96875 4.7082 7.96875 4.78125V9.35331C7.96875 9.39647 7.98867 9.43631 8.02353 9.46122L10.7694 11.4634C10.8292 11.5065 10.9122 11.4932 10.9554 11.4351L11.4302 10.7877C11.4733 10.7263 11.46 10.6432 11.4003 10.6017Z" fill="#EB5757"/>
</svg>
