<svg width="17" height="17" viewBox="0 0 17 17" fill="none" xmlns="http://www.w3.org/2000/svg">
<path d="M8.5 1.0625C4.39277 1.0625 1.0625 4.39277 1.0625 8.5C1.0625 12.6072 4.39277 15.9375 8.5 15.9375C12.6072 15.9375 15.9375 12.6072 15.9375 8.5C15.9375 4.39277 12.6072 1.0625 8.5 1.0625ZM7.96875 4.91406C7.96875 4.84102 8.02852 4.78125 8.10156 4.78125H8.89844C8.97148 4.78125 9.03125 4.84102 9.03125 4.91406V9.42969C9.03125 9.50273 8.97148 9.5625 8.89844 9.5625H8.10156C8.02852 9.5625 7.96875 9.50273 7.96875 9.42969V4.91406ZM8.5 12.2188C8.29147 12.2145 8.09292 12.1287 7.94695 11.9797C7.80098 11.8307 7.71923 11.6304 7.71923 11.4219C7.71923 11.2133 7.80098 11.013 7.94695 10.8641C8.09292 10.7151 8.29147 10.6293 8.5 10.625C8.70853 10.6293 8.90708 10.7151 9.05305 10.8641C9.19902 11.013 9.28077 11.2133 9.28077 11.4219C9.28077 11.6304 9.19902 11.8307 9.05305 11.9797C8.90708 12.1287 8.70853 12.2145 8.5 12.2188Z" fill="#EB5757"/>
</svg>
