<svg width="18" height="18" viewBox="0 0 18 18" fill="none" xmlns="http://www.w3.org/2000/svg">
<path d="M10.0897 11.6964C10.0633 11.6702 10.0276 11.6555 9.99037 11.6555C9.95317 11.6555 9.91748 11.6702 9.89105 11.6964L7.84847 13.739C6.90277 14.6847 5.30668 14.7849 4.26254 13.739C3.21664 12.6931 3.31683 11.0987 4.26254 10.153L6.30512 8.11045C6.35961 8.05596 6.35961 7.96631 6.30512 7.91182L5.60551 7.21221C5.57908 7.18604 5.54338 7.17136 5.50619 7.17136C5.46899 7.17136 5.4333 7.18604 5.40687 7.21221L3.36429 9.25479C1.87718 10.7419 1.87718 13.1483 3.36429 14.6337C4.8514 16.119 7.25785 16.1208 8.7432 14.6337L10.7858 12.5911C10.8403 12.5366 10.8403 12.447 10.7858 12.3925L10.0897 11.6964ZM14.6354 3.36436C13.1483 1.87725 10.7418 1.87725 9.25648 3.36436L7.21215 5.40693C7.18598 5.43336 7.1713 5.46906 7.1713 5.50625C7.1713 5.54345 7.18598 5.57914 7.21215 5.60557L7.91 6.30342C7.96449 6.35791 8.05414 6.35791 8.10863 6.30342L10.1512 4.26084C11.0969 3.31514 12.693 3.21494 13.7371 4.26084C14.783 5.30674 14.6828 6.90107 13.7371 7.84678L11.6946 9.88936C11.6684 9.91579 11.6537 9.95148 11.6537 9.98867C11.6537 10.0259 11.6684 10.0616 11.6946 10.088L12.3942 10.7876C12.4487 10.8421 12.5383 10.8421 12.5928 10.7876L14.6354 8.74502C16.1207 7.25791 16.1207 4.85146 14.6354 3.36436ZM10.7243 6.54424C10.6978 6.51807 10.6621 6.50339 10.6249 6.50339C10.5877 6.50339 10.5521 6.51807 10.5256 6.54424L6.54418 10.5239C6.51801 10.5504 6.50333 10.586 6.50333 10.6232C6.50333 10.6604 6.51801 10.6961 6.54418 10.7226L7.24027 11.4187C7.29476 11.4731 7.38441 11.4731 7.4389 11.4187L11.4186 7.43897C11.4731 7.38447 11.4731 7.29483 11.4186 7.24033L10.7243 6.54424Z" fill="black"/>
</svg>
