<svg width="24" height="24" viewBox="0 0 24 24" fill="none" xmlns="http://www.w3.org/2000/svg">
<path d="M9.375 7.44577H11.107V15.3747C11.107 15.4778 11.1914 15.5622 11.2945 15.5622H12.7008C12.8039 15.5622 12.8883 15.4778 12.8883 15.3747V7.44577H14.625C14.782 7.44577 14.8687 7.2653 14.7727 7.14343L12.1477 3.81999C12.1301 3.79758 12.1077 3.77945 12.0821 3.76699C12.0565 3.75452 12.0285 3.74805 12 3.74805C11.9715 3.74805 11.9435 3.75452 11.9179 3.76699C11.8923 3.77945 11.8699 3.79758 11.8523 3.81999L9.22734 7.14108C9.13125 7.2653 9.21797 7.44577 9.375 7.44577ZM20.5781 14.6716H19.1719C19.0688 14.6716 18.9844 14.7559 18.9844 14.8591V18.4684H5.01562V14.8591C5.01562 14.7559 4.93125 14.6716 4.82812 14.6716H3.42188C3.31875 14.6716 3.23438 14.7559 3.23438 14.8591V19.4997C3.23438 19.9145 3.56953 20.2497 3.98438 20.2497H20.0156C20.4305 20.2497 20.7656 19.9145 20.7656 19.4997V14.8591C20.7656 14.7559 20.6812 14.6716 20.5781 14.6716Z" fill="#828282"/>
</svg>
